<svg version="1.1" id="Layer_1" xmlns="http://www.w3.org/2000/svg" x="0" y="0" viewBox="0 0 362.2 211.1" xml:space="preserve"><style>.st0{fill-rule:evenodd;clip-rule:evenodd;fill:#2c55a2}</style><switch><g><path class="st0" d="M249.5 66.1c12.7-12.1 28.3-18.3 45.9-18.3 6.2 0 12.4.9 18.5 2.5 6.2 1.7 12.2 4.2 17.7 7.6 5.4 3.3 10.4 7.3 14.7 12 4.8 5.2 8.5 11.1 11.1 17.7 2.7 6.9 4.1 14.1 4.1 21.5 0 7.9-1.3 15.7-3.9 23.2-3.1 9.3-8.6 18.5-13.8 26.7l-22.1 34.7c-5.6 9.1-14.9 14.4-25.6 14.4h-22.6c-10 0-18.7-5.9-21.9-15.4-.5-1.4-.8-2.7-1-4.1-1 4.9-3.3 9.4-7.1 13l-.3.3c-4.8 4.3-10.9 6.2-17.2 6.2h-16.7c-6.3 0-12.4-1.9-17.2-6.2l-.2-.1-.1-.1c-4.8-4.4-7.1-10.3-7.6-16.6h-29.9c-1.8 0-3.7-.2-5.4-.5l-1.4 5.3c-2.8 10.6-12.7 18.3-23.7 18.3h-8c-6.1 0-11.6-2.4-15.6-6.1-10 5.9-21.3 8.8-33.5 8.8-6.3 0-12.4-.9-18.5-2.5-6.2-1.7-12.1-4.2-17.6-7.5-5.4-3.3-10.4-7.3-14.7-12-4.8-5.2-8.5-11.1-11.1-17.6C2 164.4.7 157.2.7 149.7c0-7.9 1.4-15.8 3.9-23.3 3.1-9.3 8.6-18.5 13.9-26.8l22.1-34.5c5.6-9.1 14.8-14.5 25.5-14.5h22.7c9.8 0 18.4 5.7 21.8 14.9l.1.2.1.2c2.6 7.6 1.3 15.8-3.5 22.2l-5.7 7.9c.3.2.6.3.9.5 4.2 2.3 8.1 5.1 11.5 8.3l9.7-36.3c2.8-10.6 12.7-18.3 23.7-18.3h8c13 0 22.7 10.5 22.7 22.7l9.5-12.2.3-.4c5.2-6.1 12.3-10.2 20.5-10.2h17.7c6.3 0 12.3 1.9 17.1 6.1 2.9 2.8 5 6.1 6.3 9.9z"/><path d="M250.8 111.6c0-12 4.5-22.3 13.4-30.9 8.9-8.6 19.6-12.9 32.2-12.9 4.4 0 8.8.6 13.2 1.8 4.4 1.2 8.6 3 12.5 5.4 3.9 2.4 7.4 5.2 10.4 8.5 3 3.2 5.4 7.1 7.2 11.5 1.8 4.4 2.7 9.1 2.7 14.1 0 5.5-.9 11.1-2.8 16.8-2 5.9-5.9 13.4-11.7 22.4L305.6 183c-2 3.3-4.9 5-8.6 5h-22.6c-1.6 0-2.6-.6-3-1.9-.4-1.3-.2-2.5.7-3.6l23.9-33.7c-3.3.5-5.4.8-6.5.8-6.8 0-13.2-1.6-19.1-4.9-6-3.3-10.7-7.9-14.3-13.7-3.5-6-5.3-12.4-5.3-19.4zM20.4 149.5c0-5.4 1-11 2.9-16.9 2-5.9 6-13.4 11.8-22.4l22.2-34.7c2-3.4 4.9-5.1 8.6-5.1h22.7c1.6 0 2.6.6 3.1 1.9.4 1.3.2 2.5-.7 3.7l-24.1 33.6c2.9-.5 5.1-.7 6.5-.7 6.8 0 13.2 1.6 19.2 4.9 6 3.3 10.7 7.9 14.3 13.8 3.6 5.9 5.4 12.3 5.4 19.3 0 12-4.5 22.3-13.4 30.8-8.9 8.6-19.7 12.8-32.3 12.8-4.4 0-8.9-.6-13.3-1.8-4.4-1.2-8.6-3-12.5-5.3-3.9-2.4-7.4-5.2-10.4-8.5-3-3.2-5.4-7.1-7.2-11.5-1.9-4.2-2.8-8.9-2.8-13.9zm32.4-14.1c-3.6 3.5-5.4 7.7-5.4 12.8 0 5 1.8 9.3 5.4 12.8 3.6 3.5 8 5.3 13.1 5.3 5.2 0 9.5-1.8 13.2-5.3 3.7-3.5 5.5-7.8 5.5-12.8 0-10.4-8.5-18-18.7-18-5.1 0-9.5 1.7-13.1 5.2zm97.1 24.2V145c0-1 .2-2 .6-2.7.4-.8 1.1-1.9 2.1-3.5l51.2-65.4c1.8-2.1 3.6-3.2 5.3-3.2h17.7c1.7 0 3 .4 3.9 1.1.8.7 1.3 2.1 1.3 4.1v64.5h10.8c2 0 3.4.4 4.1 1.3.7.9 1.1 2.1 1.1 3.9v14.6c0 1.8-.4 3.1-1.2 3.9-.8.9-2.1 1.3-4.1 1.3H232v17.9c0 1.9-.4 3.2-1.3 4-.8.7-2.1 1.1-3.9 1.1h-16.7c-1.7 0-3-.4-3.9-1.1-.8-.8-1.3-2.1-1.3-4v-17.9h-49.8c-1.9 0-3.3-.4-4.1-1.3-.7-.9-1.1-2.2-1.1-4zm29.3-19.7H205v-33.6l-25.8 33.6z" fill-rule="evenodd" clip-rule="evenodd" fill="#fff"/><path d="M147.1 70.1h9c1.9 0 3 1.6 2.5 3.5L129 184.5c-.5 1.9-2.5 3.5-4.4 3.5h-9c-1.9 0-3-1.6-2.5-3.5l29.7-110.9c.5-1.9 2.4-3.5 4.3-3.5zm149.2 52.4l-11.3 8.2c-2.3 1.9-5.1-.1-4.2-2.9l4.4-13.9c-4.1-2.9-8.1-5.8-12.2-8.7-2.2-1.6-1-4.7 1.7-4.7l14.7.1c1.4-4.4 2.8-8.8 4.1-13.2.4-1.4 1.6-2.1 2.8-2.1 1.2 0 2.4.8 2.8 2.1 1.4 4.4 2.8 8.8 4.1 13.2l14.7-.1c2.7 0 4 3.1 1.7 4.7-4.1 2.9-8.1 5.8-12.2 8.7l4.4 13.9c.9 2.8-1.9 4.7-4.2 2.9l-11.3-8.2z" fill="#fc0" fill-rule="evenodd" clip-rule="evenodd"/><path class="st0" d="M28.7 31h7c.9 0 1.7.4 2.3 1 .6.7.9 1.4.9 2.3v4.9c0 .9-.7 1.6-1.6 1.6H22.4c-.9 0-1.7-.4-2.3-1-.6-.6-.9-1.4-.9-2.3V3c0-.9.7-1.6 1.6-1.6H27c1 0 1.6.7 1.6 1.6v28h.1zM61.1.4c5.7 0 10.6 2 14.7 6.1 4 4 6.1 9 6.1 14.7 0 5.7-2 10.6-6.1 14.7-4 4-9 6.1-14.7 6.1-5.7 0-10.6-2-14.7-6.1-4-4-6.1-9-6.1-14.7 0-5.7 2-10.6 6.1-14.7S55.4.4 61.1.4zM92 11.3h-7c-1 0-1.6-.7-1.6-1.6V3c0-1 .7-1.6 1.6-1.6h23.8c1 0 1.6.7 1.6 1.6v4.9c0 .9-.3 1.7-1 2.4-.6.6-1.5 1-2.4 1h-5.3v28c0 1-.7 1.6-1.6 1.6h-6.6c-1 0-1.6-.7-1.6-1.6v-28h.1zM132.8.4c5.7 0 10.6 2 14.7 6.1 4 4 6.1 9 6.1 14.7 0 5.7-2 10.6-6.1 14.7-4 4-9 6.1-14.7 6.1-5.7 0-10.6-2-14.7-6.1-4-4-6.1-9-6.1-14.7 0-5.7 2-10.6 6.1-14.7s9-6.1 14.7-6.1zm-64 13.1c-2.1-2.1-4.7-3.2-7.7-3.2s-5.5 1-7.7 3.2c-2.1 2.1-3.2 4.7-3.2 7.7s1 5.5 3.2 7.7c2.1 2.1 4.7 3.2 7.7 3.2s5.5-1 7.7-3.2c2.1-2.1 3.2-4.7 3.2-7.7 0-3.1-1.1-5.6-3.2-7.7zm71.7 0c-2.1-2.1-4.7-3.2-7.7-3.2s-5.5 1-7.7 3.2c-2.1 2.1-3.2 4.7-3.2 7.7s1 5.5 3.2 7.7c2.1 2.1 4.7 3.2 7.7 3.2s5.5-1 7.7-3.2c2.1-2.1 3.2-4.7 3.2-7.7 0-3.1-1.1-5.6-3.2-7.7z"/></g></switch></svg>