<svg xmlns="http://www.w3.org/2000/svg" viewBox="0 0 310.2 89.4"><switch><g fill-rule="evenodd" clip-rule="evenodd"><ellipse transform="rotate(-45.001 265.752 44.623)" cx="265.8" cy="44.6" rx="44.2" ry="44.2" fill="#f9b200"/><path d="M240.2 80.7c20.6 7.4 39.4-18.8 42.6-30.2 3.8 2.1 7.4 4 10.7 5.9 1.9 1.4 4.5-1.2 3.8-4-1.6-5-3.6-9.7-5.8-14.5 2.7-3.8 5.1-7.4 7.3-10.8 1.2-1.8-.8-4.6-2.8-4.3-4 .6-7.3 1-11.3 1.6-2.8-4.1-9.7-14.8-15.1-14.9-1.2.1-2 .9-1.6 2.3 1.3 5.1 1.9 9.4 2.3 14.6l-17.7 2.4c-3.7.5-4.3 5-.7 6.6 5.3 3 10.4 5.6 16.3 8.3-1.5 11.9-13.2 38.2-28 37z" fill="#fefefe"/><path d="M191.9 11.8c0-3.7 1.1-6.6 3.4-8.5 2.3-1.9 5-2.9 8.3-2.9 3.1 0 5.7 1 8 2.9s3.4 4.8 3.4 8.5v64.9c0 1.9-.3 3.6-1 5.1-.7 1.5-1.5 2.8-2.5 3.8s-2.2 1.8-3.6 2.4c-1.4.5-2.8.8-4.3.8-2 0-3.9-.5-5.8-1.5s-3.6-2.6-5-4.7l-22.6-33.7v28.5c0 3.7-1.1 6.6-3.4 8.5-2.3 1.9-5 2.9-8.3 2.9-3.1 0-5.7-1-8-2.9-2.2-1.9-3.4-4.8-3.4-8.5v-65c0-1.8.3-3.5.9-5 .6-1.5 1.5-2.8 2.5-3.8 1.1-1 2.3-1.8 3.6-2.4 1.3-.5 2.7-.8 4.2-.8 2.1 0 4.1.5 6 1.4 1.9 1 3.6 2.5 5 4.7l22.5 33.7V11.8zM86.7 88.3c-8 0-12-4.1-12-12.2v-63c0-8.1 4-12.2 12-12.2h41.1c3.8 0 6.8 1.2 8.9 3.6 2.1 2.4 3.2 5.2 3.2 8.5s-1.1 6.1-3.2 8.5c-2.1 2.4-5.1 3.6-8.9 3.6h-29v8.3h24.1c3.5 0 6.2 1.1 8.1 3.3 1.9 2.2 2.9 4.8 2.9 7.8s-1 5.6-2.9 7.8-4.7 3.3-8.1 3.3H98.8V64h29c3.8 0 6.8 1.2 8.9 3.5 2.1 2.4 3.2 5.2 3.2 8.5s-1.1 6.2-3.2 8.6c-2.1 2.4-5.1 3.6-8.9 3.6H86.7zM24.5 76.7c0 4-1.2 7-3.6 9-2.4 2-5.2 3-8.4 3-3.3 0-6.2-1-8.5-3s-3.5-5-3.5-9V12.3C.5 8.5 1.7 5.5 4 3.5 6.4 1.4 9.2.4 12.5.4c3.2 0 6.1 1 8.4 3.1 2.4 2.1 3.6 5 3.6 8.8V33L44.3 5c1.2-1.7 2.5-2.9 3.9-3.6 1.4-.7 3.3-1 5.4-1 4 0 7.1 1.1 9.3 3.4 2.2 2.3 3.3 5.2 3.3 8.6 0 1.4-.2 2.8-.6 4.1-.4 1.3-1.2 2.4-2.1 3.5L43.2 42.9 63.6 69c1.9 2.4 2.9 4.9 2.9 7.6 0 3.7-1.2 6.7-3.5 8.9s-5.3 3.3-9.1 3.3c-1.8 0-3.5-.4-5.2-1.1-1.6-.7-3-2-4.2-3.6l-20-28v20.6z" fill="#335aa4"/></g></switch></svg>