<svg width="142" height="85" xmlns="http://www.w3.org/2000/svg"><g fill="none" fill-rule="evenodd"><path d="M24.437 9.929L24 1.639h24.598l-.488 8.29h-6.76v26.354H31.223V9.93h-6.786zM61.44 29.374c1.148 0 2.364-.085 3.64-.256a41.8 41.8 0 0 0 3.814-.69l1.054 6.32c-1.44.7-3.11 1.245-5.013 1.646-1.902.4-4.01.606-6.323.606-8.516 0-12.773-4.538-12.773-13.605 0-2.387.273-4.443.822-6.183.549-1.731 1.362-3.165 2.433-4.29 1.072-1.126 2.39-1.954 3.966-2.49 1.578-.539 3.393-.81 5.45-.81 2.056 0 3.812.297 5.269.894 1.456.606 2.656 1.425 3.598 2.482.942 1.05 1.637 2.294 2.074 3.72.436 1.432.65 2.984.65 4.656 0 .511-.033 1.04-.102 1.578a23.406 23.406 0 0 1-.24 1.527c-.094.477-.198.92-.3 1.314a9.47 9.47 0 0 1-.282.92H55.965c.07.453.223.853.454 1.177.232.334.557.606.978.828.418.213.959.383 1.618.495.66.11 1.466.161 2.425.161zm-.54-9.058c-.017-1.015-.222-1.748-.617-2.191-.393-.452-1.01-.675-1.85-.675-.823 0-1.457.231-1.91.7-.455.46-.704 1.186-.738 2.166H60.9zm22.609 16.428c-1.405.29-2.75.324-4.044.103-1.294-.223-2.442-.675-3.436-1.357a7.644 7.644 0 0 1-2.39-2.66c-.6-1.093-.9-2.364-.9-3.813V1.049L82.455 0v27.225c0 .614.103 1.169.3 1.664a5.06 5.06 0 0 0 1.73 2.252c.36.255.711.442 1.054.562l-2.03 5.04zm18.83-7.37a27.58 27.58 0 0 0 3.64-.256 41.88 41.88 0 0 0 3.813-.69l1.054 6.32c-1.439.7-3.11 1.245-5.013 1.646-1.901.4-4.01.606-6.323.606-8.515 0-12.773-4.538-12.773-13.605 0-2.387.274-4.443.822-6.183.55-1.731 1.363-3.165 2.434-4.29 1.07-1.126 2.39-1.954 3.966-2.49 1.577-.539 3.393-.81 5.45-.81 2.055 0 3.811.297 5.268.894 1.456.606 2.656 1.425 3.598 2.482.943 1.05 1.637 2.294 2.074 3.72.436 1.432.651 2.984.651 4.656 0 .511-.034 1.04-.103 1.578a22.745 22.745 0 0 1-.24 1.527c-.094.477-.197.92-.3 1.314a9.388 9.388 0 0 1-.282.92H96.863c.07.453.224.853.455 1.177.232.334.557.606.977.828.419.213.96.383 1.619.495.66.11 1.465.161 2.425.161zm-.54-9.058c-.018-1.015-.223-1.748-.617-2.191-.394-.452-1.01-.675-1.851-.675-.822 0-1.456.231-1.91.7-.454.46-.703 1.186-.737 2.166h5.114zM108 57.83c0-5.324 1.24-9.291 3.721-11.913 2.481-2.611 6.083-3.917 10.81-3.917 4.762 0 8.366 1.325 10.808 3.967 2.44 2.641 3.661 6.619 3.661 11.923 0 5.433-1.23 9.47-3.701 12.133-2.472 2.65-6.084 3.977-10.829 3.977-4.745 0-8.338-1.327-10.79-3.977-2.45-2.662-3.68-6.72-3.68-12.193zm17.66.12c0-1.417-.06-2.592-.178-3.529-.117-.938-.304-1.686-.56-2.234-.246-.548-.571-.936-.965-1.165a2.695 2.695 0 0 0-1.378-.35c-.532 0-1.005.11-1.398.33-.403.219-.738.607-1.005 1.165-.265.559-.462 1.306-.59 2.234-.128.927-.187 2.113-.187 3.548 0 1.426.059 2.613.187 3.56.128.946.325 1.705.58 2.273.257.568.571.966.966 1.195.393.23.866.349 1.417.349.522 0 .984-.119 1.378-.349.395-.229.72-.627.965-1.195.256-.568.452-1.327.58-2.274.129-.946.188-2.133.188-3.559z" fill="#FFF"/><path d="M125.741 3.453c1.816 1.957 4.252 5.547 6.07 7.505 2.607-.48 5.216-.961 7.82-1.438 1.372-.249 2.034 1.034 1.365 2.343-1.14 2.233-2.282 4.466-3.424 6.7 1.284 2.526 2.936 5.29 4.213 7.81.568 1.122-.042 1.69-1.198 1.667-2.804-.056-5.578-.282-8.366-.397-3.734 10.333-7.465 17.884-11.332 23.887-5.913 9.18-12.711 16.193-19.798 22.58-13.57 12.23-41.379 16.299-47.936.878-.591-1.39.638-2.855 1.544-.993.94 1.93 2.267 3.383 3.892 4.372 10.82 6.591 28.92-5.596 36.743-12.647 5.625-5.07 11.042-11.164 15.8-18.6 4.211-6.577 7.908-14.206 10.781-23.103l-8.005-4.007c-1.265-.634-.977-2.314.146-2.883 2.309-1.167 6.068-2.3 8.38-3.473.396-2.584 1.068-7.017 1.456-9.597.159-1.054 1.074-1.437 1.85-.604" fill="#FECC00"/><path d="M0 33h16.875c1.615 0 3.163.192 4.635.585 1.47.394 2.76 1.009 3.874 1.837 1.116.827 2 1.897 2.653 3.21.655 1.312.982 2.876.982 4.693 0 2.1-.394 3.897-1.193 5.39-.797 1.494-2.182 2.604-4.144 3.33v.426c.924.363 1.78.796 2.558 1.311a7.977 7.977 0 0 1 2 1.898c.558.746.99 1.625 1.298 2.645.308 1.018.462 2.22.462 3.593 0 1.817-.25 3.462-.75 4.946a8.774 8.774 0 0 1-2.539 3.816c-1.192 1.06-2.769 1.877-4.741 2.452-1.97.575-4.432.868-7.374.868H0V33zm10.904 23.618v8.72h3.346c1.384 0 2.461-.32 3.231-.968.768-.645 1.153-1.746 1.153-3.3 0-1.393-.346-2.483-1.038-3.27-.693-.787-1.788-1.182-3.289-1.182h-3.403zm0-15.624v7.63h3.346c2.539 0 3.807-1.322 3.807-3.966 0-1.313-.355-2.252-1.067-2.817-.711-.565-1.702-.847-2.97-.847h-3.116zM34.492 73V62.056L32 61.605v-8.27h13.704V73H34.492zm-1.9-27.414c0-1.041.15-1.92.435-2.632.287-.71.702-1.282 1.256-1.722.555-.442 1.246-.76 2.077-.95.83-.191 1.78-.282 2.847-.282 1.068 0 2.027.09 2.877.281.85.19 1.563.51 2.136.95a4.245 4.245 0 0 1 1.326 1.723c.306.711.454 1.59.454 2.632 0 1.002-.148 1.842-.444 2.523a3.852 3.852 0 0 1-1.307 1.632c-.572.41-1.284.7-2.135.871-.85.17-1.82.261-2.907.261-1.068 0-2.016-.09-2.847-.26-.831-.171-1.522-.46-2.077-.872-.554-.41-.969-.95-1.256-1.632-.286-.681-.434-1.521-.434-2.523zM60.835 73H50V42.832h8.599l.544 3.105c.46-.536.985-1.042 1.567-1.518a10.6 10.6 0 0 1 1.93-1.26 11.282 11.282 0 0 1 2.284-.843 10.371 10.371 0 0 1 2.59-.316c1.872 0 3.42.277 4.642.832a6.63 6.63 0 0 1 2.915 2.529c.716 1.131 1.213 2.55 1.499 4.264.287 1.717.43 3.749.43 6.09V73H66.166V54.604c0-1.338-.144-2.33-.44-2.966-.296-.634-.88-.951-1.74-.951-.668 0-1.231.11-1.7.327a8.09 8.09 0 0 0-1.451.892V73zM78 76.32c0-.573.096-1.126.287-1.66a6.06 6.06 0 0 1 .792-1.503c.334-.464.716-.9 1.154-1.304.44-.406.917-.771 1.432-1.088-.774-.514-1.346-1.167-1.708-1.967-.372-.801-.553-1.71-.553-2.738 0-.494.076-.998.228-1.522a6.57 6.57 0 0 1 .64-1.493 6.52 6.52 0 0 1 2.309-2.373c-1.203-.751-2.156-1.809-2.863-3.162-.706-1.365-1.06-3.025-1.06-4.982 0-1.612.316-3.056.946-4.36a9.637 9.637 0 0 1 2.643-3.311c1.126-.92 2.481-1.623 4.056-2.116 1.574-.494 3.31-.741 5.21-.741.764 0 1.536.069 2.31.197.772.128 1.706.316 2.795.574L107 42.74v6.791l-3.092-.326c.153.395.277.919.372 1.562a13.6 13.6 0 0 1 .144 2.006c0 1.621-.306 3.055-.916 4.31a8.631 8.631 0 0 1-2.586 3.134c-1.117.84-2.443 1.473-3.989 1.897-1.536.426-3.254.643-5.143.643-.487 0-.936-.02-1.327-.049-.39-.04-.753-.08-1.097-.129a2.071 2.071 0 0 0-.373.534 1.424 1.424 0 0 0-.142.623c0 .494.172.91.515 1.246.344.335.86.503 1.546.503h4.036c1.66 0 3.207.129 4.638.387 1.43.256 2.681.74 3.74 1.453 1.06.711 1.89 1.709 2.49 2.984.602 1.276.897 2.927.897 4.953 0 1.503-.314 2.856-.934 4.063-.621 1.206-1.546 2.234-2.777 3.074-1.23.84-2.777 1.483-4.628 1.928-1.852.445-4.017.672-6.508.672-.954 0-1.956-.03-3.006-.08a23.65 23.65 0 0 1-3.13-.356 15.914 15.914 0 0 1-2.949-.83 7.884 7.884 0 0 1-2.462-1.512c-.705-.642-1.268-1.443-1.689-2.412-.42-.96-.63-2.125-.63-3.49zm8.903-.919c0 .317.049.643.134.959.087.316.287.604.612.85.323.248.81.456 1.468.614.65.158 1.537.237 2.663.237 1.116 0 2.013-.079 2.69-.227.678-.149 1.203-.346 1.575-.594.373-.247.62-.534.745-.87.123-.326.19-.682.19-1.057 0-.752-.228-1.266-.686-1.533-.459-.267-1.069-.405-1.843-.405h-6.145c-.42.237-.754.515-1.01.84-.259.316-.393.712-.393 1.186zm1.89-22.904c0 2.017.955 3.025 2.853 3.025 1.956 0 2.93-.998 2.93-2.994 0-1.01-.238-1.78-.715-2.314-.468-.533-1.194-.801-2.158-.801-1.936 0-2.91 1.029-2.91 3.084z" fill="#FFF"/></g></svg>